<?xml version="1.0" encoding="utf-8"?>
<!-- Generator: Adobe Illustrator 19.0.0, SVG Export Plug-In . SVG Version: 6.00 Build 0)  -->
<svg version="1.1" id="图层_1" xmlns="http://www.w3.org/2000/svg" xmlns:xlink="http://www.w3.org/1999/xlink" x="0px" y="0px"
	 viewBox="0 0 24 24" style="enable-background:new 0 0 24 24;" xml:space="preserve">
<style type="text/css">
	.st0{fill:#484747;}
</style>
<g>
	<path class="st0" d="M8.9,2H6.2C5.8,2,5.5,3,5.5,3.4v17.2C5.5,21,5.8,22,6.2,22H9c0.4,0,0.7-1,0.7-1.4V3.4C9.6,3,9.3,2,8.9,2z"/>
	<path class="st0" d="M17.8,2H15c-0.4,0-0.7,1-0.7,1.4v17.2c0,0.4,0.3,1.4,0.7,1.4h2.8c0.4,0,0.7-1,0.7-1.4V3.4
		C18.5,3,18.2,2,17.8,2z"/>
</g>
</svg>
